#!OML:ASF H:\MichaelJackson\Top Level 1\Subject 1\Session 1\male.ASF
:FULLY-SPECIFIED
:DEGREES
25
root 13.2603 16.6637 -31.9972 12.7377 -15.5558 -2.77562
lowerback -2.07512 -1.62302 -1.27798
upperback -0.140357 -2.13343 -0.114043
thorax 1.06091 -1.0721 0.53503
lowerneck -9.93346 0.518291 -0.435117
upperneck 6.60577 0.498619 2.83838
head 3.94092 0.371636 1.0602
rclavicle -9.44227e-015 1.82882e-014
rhumerus -38.9071 7.55999 -96.0146
rradius 43.1365
rwrist 8.6798
rhand -24.6436 -24.3421
rfingers 7.12502
rthumb 1.85581 -54.3138
lclavicle -9.44227e-015 1.82882e-014
lhumerus -41.8152 -10.0651 91.1857
lradius 39.0723
lwrist 16.129
lhand -0.926909 32.1087
lfingers 7.12502
lthumb 24.7023 60.534
rfemur -19.741 4.23712 19.2754
rtibia 32.3046
rfoot -27.1967 -22.3663
rtoes 26.0457
lfemur -23.4439 4.62607 -7.84301
ltibia 37.0938
lfoot -22.6407 17.5169
ltoes 20.5693
26
root 13.1943 16.6592 -32.0015 12.5932 -15.5303 -2.84227
lowerback -1.86609 -1.57218 -1.04834
upperback -0.0532653 -2.07311 -0.100355
thorax 1.0242 -1.04103 0.42735
lowerneck -9.90539 0.493023 -0.440033
upperneck 6.4263 0.4749 2.77995
head 3.87181 0.355627 1.03762
rclavicle 1.91827e-014 -1.66979e-014
rhumerus -39.002 7.73936 -95.9476
rradius 43.3291
rwrist 8.40613
rhand -24.6883 -24.5073
rfingers 7.12502
rthumb 1.81261 -54.4793
lclavicle 1.91827e-014 -1.66979e-014
lhumerus -41.7873 -10.01 91.2697
lradius 39.0606
lwrist 16.9067
lhand -0.287506 32.4255
lfingers 7.12502
lthumb 25.315 60.7655
rfemur -19.5165 4.28135 19.6335
rtibia 32.3814
rfoot -26.9 -23.133
rtoes 23.0853
lfemur -24.0993 4.8203 -7.74058
ltibia 38.0601
lfoot -22.2263 14.6748
ltoes 21.8516
27
root 13.1301 16.6533 -32.0043 12.4265 -15.5132 -2.86859
lowerback -1.64576 -1.51627 -0.854572
upperback 0.0393971 -2.00444 -0.0947783
thorax 0.988116 -1.0059 0.331543
lowerneck -9.85993 0.466346 -0.44229
upperneck 6.22504 0.449264 2.72156
head 3.79173 0.338542 1.01418
rclavicle -3.86636e-014 1.59028e-015
rhumerus -39.0732 7.92726 -95.8639
rradius 43.4954
rwrist 8.16172
rhand -24.7628 -24.6724
rfingers 7.12502
rthumb 1.74065 -54.6451
lclavicle -3.86636e-014 1.59028e-015
lhumerus -41.7863 -9.95864 91.3774
lradius 39.1393
lwrist 17.6071
lhand 0.13375 32.5621
lfingers 7.12502
lthumb 25.7185 60.8444
rfemur -19.2937 4.43299 19.9375
rtibia 32.5082
rfoot -26.8024 -23.8292
rtoes 20.713
lfemur -24.763 5.11072 -7.77673
ltibia 39.045
lfoot -21.8902 11.9521
ltoes 22.6805
28
root 13.0674 16.647 -32.0054 12.2438 -15.5037 -2.84526
lowerback -1.42264 -1.45818 -0.703791
upperback 0.132977 -1.93125 -0.100524
thorax 0.952802 -0.968657 0.247988
lowerneck -9.8052 0.439893 -0.440982
upperneck 6.01743 0.423315 2.66402
head 3.70784 0.321389 0.990372
rclavicle 7.84206e-014 -7.15625e-015
rhumerus -39.1177 8.11997 -95.7648
rradius 43.6251
rwrist 7.96447
rhand -24.8466 -24.8477
rfingers 7.12502
rthumb 1.6597 -54.821
lclavicle 7.84206e-014 -7.15625e-015
lhumerus -41.8007 -9.876 91.4865
lradius 39.2922
lwrist 18.2177
lhand 0.283284 32.5096
lfingers 7.12502
lthumb 25.8617 60.7711
rfemur -19.0713 4.6935 20.1792
rtibia 32.6656
rfoot -26.8959 -24.4698
rtoes 18.9979
lfemur -25.4514 5.47024 -7.95976
ltibia 40.0332
lfoot -21.6329 9.47256
ltoes 22.6865
29
root 13.0065 16.6397 -32.0047 12.0585 -15.5102 -2.77671
lowerback -1.20809 -1.39582 -0.58702
upperback 0.221692 -1.8511 -0.118436
thorax 0.918295 -0.92803 0.170607
lowerneck -9.74279 0.414475 -0.440113
upperneck 5.81184 0.398305 2.60965
head 3.62341 0.304859 0.967887
rclavicle -7.38485e-014 7.95139e-015
rhumerus -39.1354 8.30867 -95.6495
rradius 43.7142
rwrist 7.82955
rhand -24.9155 -25.0109
rfingers 7.12502
rthumb 1.59315 -54.9847
lclavicle -7.38485e-014 7.95139e-015
lhumerus -41.8249 -9.73949 91.5811
lradius 39.5074
lwrist 18.7217
lhand 0.128305 32.4095
lfingers 7.12502
lthumb 25.7133 60.6925
rfemur -18.8615 5.03564 20.3622
rtibia 32.8396
rfoot -27.1388 -25.0434
rtoes 17.9088
lfemur -26.1542 5.85984 -8.2739
ltibia 41.008
lfoot -21.4404 7.28015
ltoes 22.076
30
root 12.9473 16.6341 -32.0012 11.8729 -15.5518 -2.66975
lowerback -1.00661 -1.32347 -0.497295
upperback 0.304132 -1.7567 -0.146939
thorax 0.885445 -0.880352 0.0971329
lowerneck -9.67463 0.390548 -0.44798
upperneck 5.61581 0.375453 2.56267
head 3.54147 0.289605 0.949755
rclavicle 1.17283e-014 -1.51076e-014
rhumerus -39.1355 8.49064 -95.5154
rradius 43.7716
rwrist 7.75636
rhand -24.9583 -25.1759
rfingers 7.12502
rthumb 1.55187 -55.15
lclavicle 1.17283e-014 -1.51076e-014
lhumerus -41.8526 -9.5342 91.6541
lradius 39.7766
lwrist 19.1173
lhand -0.354447 32.2027
lfingers 7.12502
lthumb 25.2508 60.5518
rfemur -18.653 5.41114 20.4918
rtibia 33.0034
rfoot -27.464 -25.5276
rtoes 17.3261
lfemur -26.8777 6.28574 -8.71844
ltibia 41.9553
lfoot -21.2624 5.45734
ltoes 20.7362
31
root 12.8899 16.63 -31.9954 11.7046 -15.6068 -2.53191
lowerback -0.827416 -1.247 -0.428234
upperback 0.373644 -1.65616 -0.179813
thorax 0.852659 -0.829674 0.0300458
lowerneck -9.61394 0.369111 -0.457933
upperneck 5.4463 0.355953 2.50934
head 3.47046 0.275961 0.930536
rclavicle -3.94588e-014 -2.38542e-014
rhumerus -39.1185 8.65663 -95.3567
rradius 43.8031
rwrist 7.74618
rhand -24.9663 -25.2972
rfingers 7.12502
rthumb 1.5441 -55.2714
lclavicle -3.94588e-014 -2.38542e-014
lhumerus -41.8747 -9.2511 91.703
lradius 40.0803
lwrist 19.3918
lhand -1.12725 31.8934
lfingers 7.12502
lthumb 24.5102 60.3449
rfemur -18.4627 5.78973 20.5793
rtibia 33.156
rfoot -27.866 -25.9097
rtoes 17.2008
lfemur -27.6387 6.72555 -9.2776
ltibia 42.8604
lfoot -21.0574 3.98201
ltoes 18.8986
32
root 12.8342 16.6281 -31.9867 11.5625 -15.6788 -2.37832
lowerback -0.678545 -1.16137 -0.366717
upperback 0.428809 -1.54305 -0.211849
thorax 0.822718 -0.772732 -0.0327093
lowerneck -9.55829 0.346169 -0.469772
upperneck 5.30051 0.334751 2.44643
head 3.40889 0.261264 0.908757
rclavicle 3.06128e-014 -1.19271e-015
rhumerus -39.0929 8.79243 -95.1656
rradius 43.8186
rwrist 7.79019
rhand -24.9216 -25.3806
rfingers 7.12502
rthumb 1.58726 -55.3545
lclavicle 3.06128e-014 -1.19271e-015
lhumerus -41.8834 -8.89656 91.733
lradius 40.3962
lwrist 19.5348
lhand -2.10364 31.511
lfingers 7.12502
lthumb 23.574 60.0861
rfemur -18.2886 6.1281 20.6385
rtibia 33.2786
rfoot -28.2919 -26.1706
rtoes 17.4267
lfemur -28.4378 7.17853 -9.93247
ltibia 43.7186
lfoot -20.8222 2.7991
ltoes 16.7564
